<?xml version="1.0" encoding="utf-8"?>
<!-- Generator: Adobe Illustrator 22.1.0, SVG Export Plug-In . SVG Version: 6.00 Build 0)  -->
<svg version="1.1" id="Capa_1" xmlns="http://www.w3.org/2000/svg" xmlns:xlink="http://www.w3.org/1999/xlink" x="0px" y="0px"
	 viewBox="0 0 537.1 537.1" style="enable-background:new 0 0 537.1 537.1;" xml:space="preserve">
<style type="text/css">
	.st0{fill:#FFFFFF;}
	.st1{fill:#2ABCB9;stroke:#FFFFFF;stroke-width:24;stroke-miterlimit:10;}
</style>
<g>
	<g id="XMLID_1_">
		<g>
			<path class="st0" d="M391.9,299.6c6.7,6.7,6.7,17.4,0,24.1c-6.6,6.7-17.5,6.7-24.1,0L269.1,225l-98.7,98.7
				c-6.7,6.7-17.5,6.7-24.1,0c-6.7-6.6-6.7-17.5,0-24.1L257,188.9c3.3-3.3,7.7-5,12.1-5c4.4,0,8.8,1.6,12.1,5L391.9,299.6z"/>
			<path class="st1" d="M269.1,13.1c141.4,0,256,114.6,256,256s-114.6,256-256,256s-256-114.6-256-256S127.7,13.1,269.1,13.1z
				 M391.9,323.7c6.7-6.7,6.7-17.5,0-24.1L281.2,188.9c-3.4-3.3-7.7-5-12.1-5s-8.8,1.6-12.1,5L146.3,299.6c-6.7,6.7-6.7,17.5,0,24.1
				c6.6,6.7,17.5,6.7,24.1,0l98.7-98.7l98.7,98.7C374.4,330.4,385.3,330.4,391.9,323.7z"/>
		</g>
	</g>
</g>
</svg>
