<?xml version="1.0" encoding="utf-8"?>
<!-- Generator: Adobe Illustrator 22.0.0, SVG Export Plug-In . SVG Version: 6.00 Build 0)  -->
<svg version="1.1" id="圖層_1" xmlns="http://www.w3.org/2000/svg" xmlns:xlink="http://www.w3.org/1999/xlink" x="0px" y="0px"
	 viewBox="0 0 377 361.2" style="enable-background:new 0 0 377 361.2;" xml:space="preserve">
<style type="text/css">
	.st0{fill:#262B2F;}
</style>
<g id="XMLID_1_">
	<g>
		<path class="st0" d="M369.2,136.3c4.2,0,7.6,3.4,7.6,7.6c0,58.1-22.6,112.7-63.7,153.8c-39.2,39.2-90.6,61.5-145.7,63.5l-15.2,0.2
			H108c-4.2,0-7.6-3.4-7.6-7.6c0-4.2,3.4-7.6,7.6-7.6h51.3c85.3,0,158.5-53.1,188.1-128c-14.1-4.7-26.8-13.4-36.3-25.1
			c-9.6-11.9-15.6-26.4-17-41.6h-75.6c-4.2,0-7.6-3.4-7.6-7.6V19.5c-23.1,11.1-42.5,28.4-56.3,49.9c-2.3,3.5-7,4.6-10.5,2.3
			c-3.5-2.3-4.6-7-2.3-10.5c15.8-24.7,38.3-44.3,64.9-56.6l8.6-4c2.4-1.1,5.1-0.9,7.3,0.5c2.2,1.4,3.5,3.8,3.5,6.4v128.7H369.2z
			 M361.4,151.6h-52c1.4,11.8,6,22.7,13.6,32.1c7.7,9.5,18,16.6,29.5,20.3C357.7,187.3,360.8,169.7,361.4,151.6z"/>
		<path class="st0" d="M224.8,170.6v19.8c0,4.2-3.4,7.6-7.6,7.6s-7.6-3.4-7.6-7.6v-19.8c0-4.2,3.4-7.6,7.6-7.6
			S224.8,166.4,224.8,170.6z"/>
		<path class="st0" d="M177,170.6v19.8c0,4.2-3.4,7.6-7.6,7.6s-7.6-3.4-7.6-7.6v-19.8c0-4.2,3.4-7.6,7.6-7.6S177,166.4,177,170.6z"
			/>
		<path class="st0" d="M132.8,7.6v136.3c0,4.2-3.4,7.6-7.6,7.6c-4.2,0-7.6-3.4-7.6-7.6V19.5c-33.1,16-58.8,45-70.7,79.8
			c-2.1,6.6-24,112.2-32.3,153.2c-0.7,3.6-3.9,6.1-7.5,6.1c-0.5,0-1,0-1.5-0.1c-4.1-0.8-6.8-4.8-5.9-9c5.8-28.6,30.4-148,32.8-155.1
			c13.5-39.5,43-72.2,80.9-89.7l8.6-4c2.4-1.1,5.1-0.9,7.3,0.5C131.5,2.6,132.8,5,132.8,7.6z"/>
	</g>
	<g>
	</g>
</g>
</svg>
