<svg viewBox="-43 1 511 511.99998" xmlns="http://www.w3.org/2000/svg"><path d="m426.242188 140.507812c0 24.984376-4.230469 48.972657-12.023438 71.304688-29.414062 84.28125-109.519531 144.789062-203.765625 145.007812v155.179688h-209.953125s80.957031-404.648438 86.203125-420.007812c13.0625-38.261719 41.285156-70.382813 79.246094-87.90625l8.851562-4.085938v140.507812c0-29.300781 8.515625-57.269531 23.6875-80.980468 15.171875-23.707032 37-43.164063 63.601563-55.441406l8.851562-4.085938v140.507812zm0 0" fill="#b75129"/><path d="m270.949219.00390625-5.035157 4.08593775c-15.152343 12.277344-27.574218 31.734375-36.214843 55.441406-4.761719 13.066406-8.375 27.425781-10.65625 42.589844-3.308594 22-21.988281 38.390625-44.234375 38.390625 0-29.300781 8.515625-57.269531 23.6875-80.980469 15.171875-23.707031 37-43.164062 63.601562-55.441406zm0 0" fill="#a03e20"/><path d="m174.800781 0c-8.851562 4.085938-40.910156 53.96875-54.660156 91.992188-17.835937 49.351562-61.722656 420.007812-61.722656 420.007812h-57.917969s80.957031-404.648438 86.203125-420.007812c13.0625-38.261719 41.285156-70.382813 79.246094-87.90625zm0 0" fill="#a03e20"/><g fill="#353c44"><path d="m269.589844 196.199219c-4.328125 0-7.835938-3.507813-7.835938-7.835938v-20.375c0-4.328125 3.507813-7.835937 7.835938-7.835937s7.835937 3.507812 7.835937 7.835937v20.375c0 4.328125-3.507812 7.835938-7.835937 7.835938zm0 0"/><path d="m220.382812 196.199219c-4.328124 0-7.839843-3.507813-7.839843-7.835938v-20.375c0-4.328125 3.511719-7.835937 7.839843-7.835937 4.324219 0 7.835938 3.507812 7.835938 7.835937v20.375c0 4.328125-3.511719 7.835938-7.835938 7.835938zm0 0"/><path d="m426.242188 140.507812c0 24.984376-4.230469 48.972657-12.023438 71.304688l-1.097656-.253906c-32.507813-7.292969-56.800782-36.328125-56.800782-71.039063v-.011719zm0 0"/></g><path d="m210.464844 427.644531v48.066407h-202.6875l9.664062-48.066407zm0 0" fill="#43b9dd"/><path d="m97.09375 427.644531-8.882812 48.066407h-80.433594l9.664062-48.066407zm0 0" fill="#2ca3bf"/></svg>