<?xml version="1.0" encoding="utf-8"?>
<!-- Generator: Adobe Illustrator 22.0.0, SVG Export Plug-In . SVG Version: 6.00 Build 0)  -->
<svg version="1.1" id="圖層_1" xmlns="http://www.w3.org/2000/svg" xmlns:xlink="http://www.w3.org/1999/xlink" x="0px" y="0px"
	 viewBox="0 0 600 352.3" style="enable-background:new 0 0 600 352.3;" xml:space="preserve">
<g>
	<path d="M-0.3,117.7c0-2,0-4,0-6c2.6-2.4,4.9-5.5,7.8-7.2C63.4,71.1,119.3,37.8,175.3,4.6c2.5-1.5,4.9-3.3,7.4-4.9c24,0,48,0,72,0
		c1.5,0.2,2.9,0.7,4.4,0.7c31.1,1.1,62.2,2.2,93.3,3.3c31.8,1.1,63.6,2.2,95.3,3.4c2.7,0.1,5.7,0.8,7.9,2.3
		c44.9,31.3,89.8,62.6,134.6,94.1c3.6,2.5,6.4,6.1,9.5,9.1c0,2,0,4,0,6c-3.9,7.5-11.3,6.1-17.9,6.3c0,1.3,0,1.9,0,2.6
		c0,70.2,0,140.3,0,210.5c0,11.6-2.9,14.5-14.5,14.5c-178.5,0-357,0-535.4,0c-11.7,0-14.8-3.1-14.8-14.8c0-69.2,0-138.3,0-207.5
		c0-2.1,0-4.2,0-6.5C5.3,126.8,4.1,126.4-0.3,117.7z M284.5,84.2c-1.6-1.5-2-1.9-2.4-2.2c-30.3-20.3-60.6-40.5-90.8-60.9
		c-2.7-1.8-4.4-1-6.7,0.3C151.4,41.3,118,61.1,84.7,80.9c-1.1,0.7-2.2,1.5-4.5,3.2c10.9,0,20.2,0,29.5,0c3.6,0,6.9,0.5,6.9,5.1
		c0,4.7-3.1,5.6-7.1,5.6c-14.3-0.1-28.7-0.1-43,0c-1.9,0-4.1,0.2-5.7,1.2c-7.1,4-14.1,8.3-21,12.6c-1.1,0.7-2.5,2.1-2.5,3.2
		c-0.2,8.4-0.1,16.9-0.1,25.8c2.3,0,4.1,0,5.9,0c30.7,0,61.3,0,92,0c35.3,0,70.7,0,106,0c6.5,0,9,1.5,8.6,5.5
		c-0.4,5.4-4.5,5.4-8.5,5.3c-5.4-0.1-10.8,0-17.2,0c1.2,0.9,1.5,1.3,1.9,1.5c31.3,16,46.3,41.8,46,76.8c-0.1,5.1,0,10.3,0,15.5
		c22.4,0,44.2,0,66.1,0c0-14,0-27.6,0-41.6c-2.1,0-3.9,0-5.7,0c-17.8,0-35.7,0-53.5,0c-3.8,0-7.4-0.5-7.3-5.4
		c0.1-4.6,3.4-5.5,7.3-5.5c17.8,0.1,35.7,0,53.5,0c1.8,0,3.6,0,5.7,0c0-14.3,0-28,0-42.2c-8.4,0-16.6,0-24.7,0
		c-14.3,0-28.7-0.1-43,0c-3.8,0-6.4-1.3-6.3-5.3c0.1-3.8,2.5-5.6,6.3-5.6c1.2,0,2.3,0,3.5,0c19.2,0,38.3,0,57.5,0c1.7,0,3.5,0,5.5,0
		c0-4.6-0.2-8.5,0.1-12.3c0.3-3.6-0.9-5.8-4-7.7c-9.5-6.1-18.7-12.8-28.3-18.8c-2.9-1.8-6.7-3.1-10-3.1c-48.3-0.2-96.6-0.1-145-0.1
		c-1.8,0-4,0.5-5.4-0.3c-1.8-1.1-4.2-3.2-4.2-4.9c0-1.8,2.3-3.9,4.1-5.2c1.1-0.8,3.2-0.3,4.9-0.3c42.8,0,85.7,0,128.5,0
		C279.3,84.2,281.2,84.2,284.5,84.2z M358.8,252.2c0,14.2,0,27.7,0,41.2c67.8,0,135.2,0,202.6,0c0-31.4,0-62.5,0-93.9
		c-67.6,0-135,0-202.7,0c0,14,0,27.7,0,42c2.2,0,4.1,0,6.1,0c56,0,112,0,167.9,0c1.5,0,3,0,4.5,0c3.3,0,5.5,2,4.9,4.9
		c-0.4,2.1-2.6,4.2-4.5,5.5c-1.1,0.8-3.2,0.2-4.9,0.2c-55.6,0-111.3,0-166.9,0C363.6,252.2,361.5,252.2,358.8,252.2z M225.2,20
		c2.2,1.6,3.1,2.5,4.2,3.2c39.9,26.6,79.8,53.1,119.9,79.6c2,1.3,4.9,2,7.4,2c64.8,0.1,129.7,0.1,194.5,0.1c1.6,0,3.1-0.2,5.8-0.3
		c-2.5-1.8-4-3-5.6-4.1c-32.9-23-65.8-46-98.6-69.1c-4.3-3-8.6-4.4-13.8-4.6c-50.3-1.5-100.6-3.2-150.9-4.8
		C267.6,21.3,247.1,20.7,225.2,20z M70.2,276.4c0.6,2.1,1,4.1,1.7,5.9c5.1,13.6,13.5,24.9,24.6,34c13.2,10.8,28.3,16.5,45.9,16.5
		c15.9,0,30.8-1.7,44.2-10.8c1.3-0.9,3.5-0.9,5.2-0.7c5.6,0.8,8.1,4.6,8.1,10.1c17.4,0,34.5,0,51.6,0c0-32.3,0-64.4,0-97.1
		c-47.8,0-95.2,0-142.6,0C103.9,257.5,94,268.4,70.2,276.4z M561.5,148.1c-67.8,0-135.3,0-202.8,0c0,14,0,27.6,0,41.4
		c67.8,0,135.3,0,202.8,0C561.5,175.4,561.5,161.8,561.5,148.1z M37.5,189.2c2.3,0,4.2,0,6.2,0c17.7,0,35.3,0,53,0
		c1.8,0,4-0.4,5.4,0.5c1.7,1.1,3.8,3.4,3.6,4.9c-0.2,1.9-2.4,3.7-4.2,5.1c-0.8,0.7-2.6,0.2-3.9,0.2c-18.2,0-36.3,0-54.5,0
		c-1.8,0-3.6,0-5.5,0c0,14.4,0,28.1,0,42c3.8,0,7.2,0,11.2,0c0-8.9,0-17.5,0-26.2c20.7,0,40.8,0,61.4,0c1.6-14.6,6.4-27.9,14.7-39.9
		c8.3-12,19.3-20.8,31.9-28.2c-39.7,0-79.3,0-119.2,0C37.5,161.4,37.5,175,37.5,189.2z M358.7,331.3c68,0,135.4,0,202.7,0
		c0-9.1,0-17.8,0-26.4c-67.8,0-135.2,0-202.7,0C358.7,313.9,358.7,322.5,358.7,331.3z M337.3,293.9c0-14.1,0-27.6,0-41.3
		c-22,0-43.7,0-65.6,0c0,13.9,0,27.5,0,41.3C293.7,293.9,315.3,293.9,337.3,293.9z M561.5,125.1c-67.6,0-135.1,0-202.7,0
		c0,4,0,7.7,0,11.4c67.8,0,135.1,0,202.7,0C561.5,132.6,561.5,129,561.5,125.1z M337.4,304.9c-22.1,0-43.9,0-65.6,0
		c0,9,0,17.6,0,26.3c22.1,0,43.9,0,65.6,0C337.4,322.2,337.4,313.6,337.4,304.9z M195.7,215.8c-0.5-1.1-1.1-2.4-1.8-3.7
		c-5.6-10.2-11.2-20.4-16.9-30.6c-1.2-2.2-2.6-4.3-4.3-6.1c-4.5-4.8-12.7-5.5-17.8-1.7c-6.3,4.6-8,12-4.2,18.5
		c4.1,7,8.4,14,12.7,20.9c0.7,1.1,2.1,2.5,3.2,2.6C176.2,215.9,185.8,215.8,195.7,215.8z M36.8,331.3c16.5,0,32.9,0,48.1,0
		c-7-8.3-14.2-16.9-21.4-25.5c-0.5-0.6-1.3-1.2-2-1.3c-8.2-0.1-16.5-0.1-24.7-0.1C36.8,313.9,36.8,322.5,36.8,331.3z M229.9,175.2
		c-1.9,14.3-3.6,27.6-5.3,41.2c9,0,17.6,0,26.6,0C249.7,200,242.8,186.8,229.9,175.2z M38,252.5c0,13.9,0,27.4,0,41.2
		c6.6,0,12.9,0,18.1,0c-3-13.7-6-27.3-9.1-41.2C44.8,252.5,41.5,252.5,38,252.5z M66.2,257.6c10.8-1,23.3-12.7,22.9-23.8
		c-7.6,0-15.1,0-22.9,0C66.2,241.7,66.2,249.5,66.2,257.6z"/>
	<path d="M173.8,246.2c6.7,0.1,12,5.6,11.8,12.3c-0.2,6.6-5.8,11.9-12.4,11.7c-6.5-0.2-11.6-5.6-11.6-12
		C161.7,251.4,167.2,246.1,173.8,246.2z"/>
</g>
</svg>
