<svg id="圖層_1" data-name="圖層 1" xmlns="http://www.w3.org/2000/svg" viewBox="0 0 600 352.84"><title>未命名-1</title><path d="M-.33,117.67v-6c2.6-2.44,4.85-5.46,7.84-7.24Q91.33,54.38,175.28,4.57c2.53-1.51,4.93-3.26,7.39-4.9h72A33.17,33.17,0,0,0,259,.39q46.66,1.68,93.34,3.28c31.77,1.11,63.55,2.19,95.32,3.44a15.44,15.44,0,0,1,7.89,2.31Q523,56.3,590.16,103.53c3.56,2.5,6.36,6.07,9.51,9.14v6c-3.91,7.47-11.26,6.07-17.91,6.28v2.59q0,105.24,0,210.47c0,11.55-2.94,14.49-14.49,14.49H31.87C20.15,352.5,17,349.4,17,337.75V123.8C5.34,126.84,4.05,126.35-.33,117.67ZM284.54,84.16c-1.63-1.51-2-1.9-2.36-2.18Q236.73,51.53,191.34,21c-2.68-1.8-4.4-1-6.68.33Q134.71,51.2,84.72,80.94c-1.15.68-2.18,1.55-4.5,3.22,10.91,0,20.22,0,29.53,0,3.63,0,6.93.49,6.92,5.13s-3.1,5.61-7.11,5.59q-21.5-.14-43,0A12.36,12.36,0,0,0,60.85,96c-7.09,4-14.06,8.27-21,12.58-1.12.7-2.51,2.12-2.54,3.25-.22,8.43-.12,16.88-.12,25.8H241.13c6.53,0,9,1.49,8.64,5.52-.43,5.39-4.45,5.37-8.46,5.33-5.41-.06-10.82,0-17.2,0A20.85,20.85,0,0,0,226,150c31.26,16.05,46.32,41.77,46,76.75-.06,5.13,0,10.26,0,15.53H338V200.67h-59.2c-3.77,0-7.37-.5-7.26-5.4.1-4.64,3.39-5.47,7.31-5.46,17.83.05,35.66,0,53.49,0h5.68V147.67H313.36c-14.34,0-28.67,0-43,0-3.78,0-6.35-1.31-6.27-5.3.07-3.78,2.47-5.62,6.26-5.57,1.17,0,2.33,0,3.5,0h63c0-4.62-.24-8.46.07-12.25.29-3.58-.94-5.76-4-7.72-9.52-6.12-18.71-12.76-28.3-18.76a20.06,20.06,0,0,0-10-3.13c-48.33-.2-96.65-.13-145-.14-1.83,0-4,.52-5.4-.29-1.85-1.08-4.25-3.22-4.25-4.9s2.28-4,4.08-5.2c1.14-.8,3.23-.27,4.89-.27H284.54Zm74.3,168v41.17H561.46V199.47H358.76v42h174l4.5,0c3.3,0,5.45,2,4.89,4.87-.4,2.1-2.6,4.17-4.51,5.54-1.12.8-3.23.24-4.9.24H358.84ZM225.22,20c2.15,1.63,3.13,2.45,4.19,3.16Q289.3,63,349.27,102.74a14.27,14.27,0,0,0,7.4,2q97.24.15,194.48.07c1.57,0,3.13-.16,5.79-.3-2.47-1.8-4-3-5.6-4.07Q502,65.92,452.77,31.31A23.84,23.84,0,0,0,439,26.74c-50.3-1.49-100.6-3.21-150.9-4.83C267.61,21.25,247.14,20.66,225.22,20Zm-155,256.43c.59,2.12,1,4.06,1.67,5.89a78.85,78.85,0,0,0,24.62,34c13.24,10.77,28.28,16.47,45.9,16.48,15.88,0,30.78-1.65,44.21-10.78,1.31-.89,3.51-.94,5.2-.69,5.64.83,8.1,4.6,8.13,10.06H251.5v-97.1H108.9C103.91,257.45,94,268.4,70.19,276.43ZM561.48,148.06H358.71v41.35H561.48Zm-524,41.1h6.16q26.49,0,53,0c1.82,0,4-.36,5.37.51,1.67,1.06,3.81,3.37,3.62,4.87-.23,1.88-2.44,3.74-4.19,5.1-.84.66-2.58.17-3.91.17h-60v42H48.73V215.57h61.39a84.65,84.65,0,0,1,14.71-39.88c8.3-12,19.33-20.76,31.89-28.17H37.49ZM358.65,331.32h202.7V304.87H358.65ZM337.34,293.9V252.55H271.77V293.9Zm224.2-168.76H358.85v11.38H561.54ZM337.37,305H271.72v26.3h65.65Zm-141.71-89.1c-.54-1.12-1.12-2.43-1.8-3.68-5.61-10.2-11.21-20.41-16.9-30.57a30.35,30.35,0,0,0-4.3-6.08c-4.54-4.78-12.71-5.47-17.79-1.73-6.25,4.61-8,12-4.24,18.51,4.13,7,8.4,14,12.75,20.87.7,1.12,2.1,2.54,3.21,2.56C176.18,215.93,185.77,215.85,195.66,215.85ZM36.8,331.31H84.9c-7-8.29-14.17-16.89-21.42-25.46a3.27,3.27,0,0,0-2-1.25c-8.23-.08-16.47-.05-24.67-.05ZM229.89,175.25l-5.33,41.17h26.55C249.66,200,242.76,186.75,229.89,175.25ZM38,252.5v41.2H56.13c-3-13.75-6-27.27-9.13-41.2Zm28.18,5.05c10.77-1,23.33-12.69,23-23.78h-23Z" transform="translate(0.33 0.33)"/><path d="M173.84,246.19a12,12,0,1,1-12.17,11.89A12,12,0,0,1,173.84,246.19Z" transform="translate(0.33 0.33)"/></svg>